<svg width="72" height="48" viewBox="0 0 72 48" fill="none" xmlns="http://www.w3.org/2000/svg">
<g clip-path="url(#clip0)">
<path d="M68.2631 47.5C70.1961 47.5 71.7818 45.9008 71.7818 43.9516V4.03896C71.7818 2.09915 70.1961 0.5 68.2631 0.5H3.51872C1.58577 0.5 0 2.09915 0 4.03896V43.9516C0 45.9008 1.58577 47.5 3.51872 47.5H68.2631Z" fill="#0047BA"/>
<path d="M28.1407 24.8754H24.4343C23.3459 24.8754 21.9384 25.6513 21.5349 26.6827L21.9009 24.7051H17.3687L15.3701 36.079H19.9022L21.1596 28.878H26.0389C26.0389 28.878 25.4196 32.4454 25.1381 34.0445C24.866 35.6437 25.9357 36.0316 26.4705 36.0316H28.8445L30.3927 27.1842C30.2426 25.9163 29.3981 24.8754 28.1407 24.8754Z" fill="white"/>
<path d="M14.1127 24.7051L13.2588 29.5877L16.7024 24.7051H14.1127Z" fill="white"/>
<path d="M19.4886 6.88672H4.32528L3.66846 10.6528H8.96061L6.84 22.8026H11.4096L13.5303 10.6528H18.8318L19.4886 6.88672Z" fill="#FFCD00"/>
<path d="M22.6228 19.0751L23.289 15.2712H19.226L18.5598 19.0751H22.6228ZM16.2234 22.8033C14.966 22.8033 14.1216 21.7624 14.3374 20.4944L15.5103 13.8423C15.7261 12.5744 16.9365 11.543 18.1939 11.543H25.6254C26.8828 11.543 27.7273 12.5744 27.5021 13.8423L26.3385 20.4944C26.1133 21.7624 24.9029 22.8033 23.6455 22.8033H16.2234Z" fill="#FFCD00"/>
<path d="M46.1375 19.0751L46.8037 15.2712H52.687L53.3438 11.543H45.7715C44.5142 11.543 43.3037 12.5744 43.0785 13.8423L41.915 20.4944C41.6992 21.7624 42.5437 22.8033 43.801 22.8033H51.1669L51.8143 19.0751H46.1375Z" fill="#FFCD00"/>
<path d="M36.886 19.0751H31.9035L33.2172 11.543H29.2481L27.6811 20.4944C27.4559 21.7624 28.3098 22.8033 29.5671 22.8033H33.433C34.6904 22.8033 35.7131 22.0463 36.5295 21.0717C36.5295 21.0717 36.9705 22.3775 37.6085 22.6708C38.2466 22.9641 40.1889 22.8979 40.1889 22.8979L42.1782 11.5524H38.2091L36.886 19.0751Z" fill="#FFCD00"/>
<path d="M65.5049 11.5994H61.7986C60.7101 11.5994 59.6592 12.3753 59.2463 13.4067L60.316 7.29395H56.1405L53.4287 22.8029H57.6136L58.871 15.602H63.4031C63.4031 15.602 62.7838 19.1693 62.5023 20.7685C62.2208 22.3582 63.2999 22.7461 63.8253 22.7461H65.8427L67.391 13.8987C67.6068 12.6308 66.7623 11.5994 65.5049 11.5994Z" fill="#FFCD00"/>
<path d="M50.6223 39.8642C48.9334 39.8642 47.7886 38.4638 48.0889 36.7605L49.6559 27.8185C49.9468 26.1153 51.5794 24.7148 53.2778 24.7148H62.7361C64.4251 24.7148 65.5698 26.1153 65.2696 27.8185L63.712 36.7605C63.4117 38.4638 61.7884 39.8642 60.09 39.8642H50.6223ZM59.4332 35.6818L60.6249 28.8972H53.9159L52.7242 35.6818H59.4332Z" fill="#FFCD00"/>
<path d="M41.446 35.6818H34.7369L35.9286 28.8972H46.8038L47.5169 24.7148H35.2812C33.5922 24.7148 31.9595 26.1153 31.6686 27.8185L30.1016 36.7605C29.8107 38.4638 30.9461 39.8642 32.6351 39.8642H42.0934C43.7824 39.8642 45.4151 38.4638 45.706 36.7605L46.663 31.2723H42.206L41.446 35.6818Z" fill="#FFCD00"/>
</g>
<defs>
<clipPath id="clip0">
<rect width="71.7818" height="47" fill="white" transform="translate(0 0.5)"/>
</clipPath>
</defs>
</svg>
